<svg width="49" height="48" viewBox="0 0 49 48" fill="none" xmlns="http://www.w3.org/2000/svg">
<path d="M8 8C8 3.58172 11.5817 0 16 0V0C20.4183 0 24 3.58172 24 8V16H16C11.5817 16 8 12.4183 8 8V8Z" fill="#FFCD2E"/>
<path d="M0 29C0 22.3726 5.37258 17 12 17H24V29C24 35.6274 18.6274 41 12 41V41C5.37258 41 0 35.6274 0 29V29Z" fill="#A259FE"/>
<path d="M25 19C25 12.3726 30.3726 7 37 7V7C43.6274 7 49 12.3726 49 19V19C49 25.6274 43.6274 31 37 31H25V19Z" fill="#FF7162"/>
<path d="M25 32H33C37.4183 32 41 35.5817 41 40V40C41 44.4183 37.4183 48 33 48V48C28.5817 48 25 44.4183 25 40V32Z" fill="#0DCF82"/>
</svg>
